<?xml version="1.0" standalone="no"?>
<!DOCTYPE svg PUBLIC "-//W3C//DTD SVG 20010904//EN"
 "http://www.w3.org/TR/2001/REC-SVG-20010904/DTD/svg10.dtd">
<svg version="1.0" xmlns="http://www.w3.org/2000/svg"
 width="513.000000pt" height="513.000000pt" viewBox="0 0 513.000000 513.000000"
 preserveAspectRatio="xMidYMid meet">
<metadata>
Created by potrace 1.14, written by Peter Selinger 2001-2017
</metadata>
<g transform="translate(0.000000,513.000000) scale(0.100000,-0.100000)"
fill="#000000" stroke="none">
<path d="M2398 5125 c-2 -1 -32 -5 -68 -9 -158 -16 -210 -30 -250 -69 -34 -33
-55 -77 -66 -134 -10 -54 -51 -149 -88 -207 -57 -88 -149 -170 -249 -221 -40
-21 -66 -58 -62 -87 3 -18 -21 -29 -103 -47 -40 -8 -44 -7 -52 13 -14 37 -34
46 -126 57 -99 11 -115 14 -163 36 -54 25 -142 28 -185 8 -70 -33 -300 -305
-415 -490 -24 -38 -52 -82 -62 -96 -9 -14 -45 -81 -79 -149 -91 -181 -88 -236
15 -345 227 -240 361 -524 392 -830 9 -91 6 -270 -7 -346 -7 -38 -13 -79 -14
-91 -5 -38 -46 -178 -71 -237 -13 -31 -26 -63 -29 -71 -40 -100 -170 -282
-288 -403 -117 -119 -138 -152 -138 -217 0 -108 247 -592 379 -743 43 -50 134
-61 221 -28 155 60 324 90 505 91 96 0 150 -5 270 -26 238 -41 497 -175 695
-360 109 -102 160 -128 232 -120 68 9 93 24 183 108 43 40 87 80 99 88 11 8
27 20 34 27 20 20 147 100 200 127 91 46 199 86 293 110 99 25 128 30 239 42
84 8 106 17 123 51 15 27 16 28 91 25 65 -3 76 -6 76 -22 0 -35 33 -60 105
-76 39 -9 114 -30 169 -45 54 -16 109 -29 123 -29 30 0 83 22 113 46 64 54
257 397 346 614 71 176 64 215 -61 344 -134 139 -219 268 -296 446 -36 84 -76
212 -84 270 -2 14 -7 41 -10 60 -15 79 -22 304 -11 355 2 11 7 45 11 75 32
247 156 505 353 735 93 108 95 158 16 322 -106 218 -236 417 -393 603 -161
190 -210 214 -349 170 -87 -27 -114 -31 -207 -32 -167 0 -335 73 -466 202 -49
48 -149 226 -149 264 0 42 -34 119 -67 151 -44 43 -82 54 -273 81 -43 6 -396
14 -402 9z"/>
</g>
</svg>
